<?xml version="1.0" encoding="UTF-8" standalone="no"?>
<!-- Generator: Adobe Illustrator 17.1.0, SVG Export Plug-In . SVG Version: 6.00 Build 0)  -->

<svg
   xmlns:dc="http://purl.org/dc/elements/1.1/"
   xmlns:cc="http://creativecommons.org/ns#"
   xmlns:rdf="http://www.w3.org/1999/02/22-rdf-syntax-ns#"
   xmlns:svg="http://www.w3.org/2000/svg"
   xmlns="http://www.w3.org/2000/svg"
   xmlns:sodipodi="http://sodipodi.sourceforge.net/DTD/sodipodi-0.dtd"
   xmlns:inkscape="http://www.inkscape.org/namespaces/inkscape"
   version="1.1"
   id="Layer_1"
   x="0px"
   y="0px"
   width="771"
   height="435"
   viewBox="-285.5 9 771 282"
   enable-background="new -285.5 9 771 282"
   xml:space="preserve"
   inkscape:version="0.91 r13725"
   sodipodi:docname="placeholder-771x435.svg"><metadata
     id="metadata9"><rdf:RDF><cc:Work
         rdf:about=""><dc:format>image/svg+xml</dc:format><dc:type
           rdf:resource="http://purl.org/dc/dcmitype/StillImage" /><dc:title></dc:title></cc:Work></rdf:RDF></metadata><defs
     id="defs7" /><sodipodi:namedview
     pagecolor="#ffffff"
     bordercolor="#666666"
     borderopacity="1"
     objecttolerance="10"
     gridtolerance="10"
     guidetolerance="10"
     inkscape:pageopacity="0"
     inkscape:pageshadow="2"
     inkscape:window-width="1600"
     inkscape:window-height="881"
     id="namedview5"
     showgrid="false"
     inkscape:zoom="0.41763943"
     inkscape:cx="237.04658"
     inkscape:cy="141"
     inkscape:window-x="1916"
     inkscape:window-y="176"
     inkscape:window-maximized="1"
     inkscape:current-layer="Layer_1" /><path
     d="m 125.8,127.8 27.4,-27.4 -7,-7.4 -27.6,27.6 M 96,87.4 l 10.2,0 0,29.4 -10.2,0 0,-29.4 z m 34.6,51.8 30,0 0,10.4 -30,0 0,-10.4 z m -30.4,23.4 c -5.6,0 -12.6,-4.4 -12.6,-12.6 0,-4.4 3,-12.6 12.6,-12.6 7.8,0 12.6,6 12.6,12.6 -0.2,8.2 -7,12.6 -12.6,12.6 z M 123.6,150 c 0,-14.2 -11.6,-24 -23.8,-24 -14.2,0 -23.6,11.8 -23.6,24 0,13.8 11.6,24 23.6,24 12.6,-0.2 23.8,-10 23.8,-24 z"
     id="path3"
     inkscape:connector-curvature="0"
     style="fill:#181818" /></svg>